<?xml version="1.0" encoding="UTF-8" standalone="no"?>
<svg width="791px" height="92px" viewBox="0 0 791 92" version="1.1" xmlns="http://www.w3.org/2000/svg" xmlns:xlink="http://www.w3.org/1999/xlink">
    <!-- Generator: Sketch 3.8.2 (29753) - http://www.bohemiancoding.com/sketch -->
    <title>Artboard 1</title>
    <desc>Created with Sketch.</desc>
    <defs></defs>
    <g id="Page-1" stroke="none" stroke-width="1" fill="none" fill-rule="evenodd">
        <g id="Artboard-1" fill="#002BFF">
            <g id="logo">
                <polygon id="T" points="15.408 29.504 15.408 71.408 26.712 71.408 26.712 29.504 42.12 29.504 42.12 20 0 20 0 29.504"></polygon>
                <polygon id="Y" points="87.864 71.392 87.864 91.408 99.168 91.408 99.168 71.68 118.248 40 105.648 40 93.696 60.304 81.672 40 69 40"></polygon>
                <path d="M185.504,36.504 L196.448,36.504 C196.111998,33.5279851 195.296006,30.8880115 194,28.584 C192.703994,26.2799885 191.06001,24.3480078 189.068,22.788 C187.07599,21.2279922 184.820013,20.0400041 182.3,19.224 C179.779987,18.4079959 177.104014,18 174.272,18 C170.33598,18 166.796016,18.695993 163.652,20.088 C160.507984,21.480007 157.856011,23.3999878 155.696,25.848 C153.535989,28.2960122 151.880006,31.1639836 150.728,34.452 C149.575994,37.7400164 149,41.3039808 149,45.144 C149,48.8880187 149.575994,52.3799838 150.728,55.62 C151.880006,58.8600162 153.535989,61.679988 155.696,64.08 C157.856011,66.480012 160.507984,68.3639932 163.652,69.732 C166.796016,71.1000068 170.33598,71.784 174.272,71.784 C177.440016,71.784 180.343987,71.3040048 182.984,70.344 C185.624013,69.3839952 187.92799,67.9920091 189.896,66.168 C191.86401,64.3439909 193.447994,62.136013 194.648,59.544 C195.848006,56.951987 196.591999,54.0480161 196.88,50.832 L185.936,50.832 C185.503998,54.2880173 184.31601,57.0719894 182.372,59.184 C180.42799,61.2960106 177.728017,62.352 174.272,62.352 C171.727987,62.352 169.568009,61.8600049 167.792,60.876 C166.015991,59.8919951 164.576006,58.5840082 163.472,56.952 C162.367994,55.3199918 161.564003,53.4840102 161.06,51.444 C160.555997,49.4039898 160.304,47.3040108 160.304,45.144 C160.304,42.8879887 160.555997,40.7040106 161.06,38.592 C161.564003,36.4799894 162.367994,34.5960083 163.472,32.94 C164.576006,31.2839917 166.015991,29.9640049 167.792,28.98 C169.568009,27.9959951 171.727987,27.504 174.272,27.504 C175.664007,27.504 176.995994,27.7319977 178.268,28.188 C179.540006,28.6440023 180.679995,29.2799959 181.688,30.096 C182.696005,30.9120041 183.535997,31.8599946 184.208,32.94 C184.880003,34.0200054 185.311999,35.2079935 185.504,36.504 L185.504,36.504 Z" id="C"></path>
                <polygon id="H" points="231 0 231 51.408 242.304 51.408 242.304 29.232 263.112 29.232 263.112 51.408 274.416 51.408 274.416 0 263.112 0 263.112 19.728 242.304 19.728 242.304 0"></polygon>
                <path d="M321.304,45.144 C321.304,42.8879887 321.555997,40.7040106 322.06,38.592 C322.564003,36.4799894 323.367994,34.5960083 324.472,32.94 C325.576006,31.2839917 327.015991,29.9640049 328.792,28.98 C330.568009,27.9959951 332.727987,27.504 335.272,27.504 C337.816013,27.504 339.975991,27.9959951 341.752,28.98 C343.528009,29.9640049 344.967994,31.2839917 346.072,32.94 C347.176006,34.5960083 347.979997,36.4799894 348.484,38.592 C348.988003,40.7040106 349.24,42.8879887 349.24,45.144 C349.24,47.3040108 348.988003,49.4039898 348.484,51.444 C347.979997,53.4840102 347.176006,55.3199918 346.072,56.952 C344.967994,58.5840082 343.528009,59.8919951 341.752,60.876 C339.975991,61.8600049 337.816013,62.352 335.272,62.352 C332.727987,62.352 330.568009,61.8600049 328.792,60.876 C327.015991,59.8919951 325.576006,58.5840082 324.472,56.952 C323.367994,55.3199918 322.564003,53.4840102 322.06,51.444 C321.555997,49.4039898 321.304,47.3040108 321.304,45.144 L321.304,45.144 Z M310,45.144 C310,48.8880187 310.575994,52.3799838 311.728,55.62 C312.880006,58.8600162 314.535989,61.679988 316.696,64.08 C318.856011,66.480012 321.507984,68.3639932 324.652,69.732 C327.796016,71.1000068 331.33598,71.784 335.272,71.784 C339.25602,71.784 342.807984,71.1000068 345.928,69.732 C349.048016,68.3639932 351.687989,66.480012 353.848,64.08 C356.008011,61.679988 357.663994,58.8600162 358.816,55.62 C359.968006,52.3799838 360.544,48.8880187 360.544,45.144 C360.544,41.3039808 359.968006,37.7400164 358.816,34.452 C357.663994,31.1639836 356.008011,28.2960122 353.848,25.848 C351.687989,23.3999878 349.048016,21.480007 345.928,20.088 C342.807984,18.695993 339.25602,18 335.272,18 C331.33598,18 327.796016,18.695993 324.652,20.088 C321.507984,21.480007 318.856011,23.3999878 316.696,25.848 C314.535989,28.2960122 312.880006,31.1639836 311.728,34.452 C310.575994,37.7400164 310,41.3039808 310,45.144 L310,45.144 Z" id="O"></path>
                <path d="M433.384,84.8 L434.536,90.632 L441.736,90.632 L441.736,62.84 L420.136,62.84 L420.136,71.264 L431.512,71.264 C431.175998,74.864018 429.98801,77.6119905 427.948,79.508 C425.90799,81.4040095 423.016019,82.352 419.272,82.352 C416.727987,82.352 414.568009,81.8600049 412.792,80.876 C411.015991,79.8919951 409.576006,78.5840082 408.472,76.952 C407.367994,75.3199918 406.564003,73.4840102 406.06,71.444 C405.555997,69.4039898 405.304,67.3040108 405.304,65.144 C405.304,62.8879887 405.555997,60.7040106 406.06,58.592 C406.564003,56.4799894 407.367994,54.5960083 408.472,52.94 C409.576006,51.2839917 411.015991,49.9640049 412.792,48.98 C414.568009,47.9959951 416.727987,47.504 419.272,47.504 C422.008014,47.504 424.33599,48.2239928 426.256,49.664 C428.17601,51.1040072 429.471997,53.2639856 430.144,56.144 L440.944,56.144 C440.655999,53.2159854 439.864006,50.6240113 438.568,48.368 C437.271994,46.1119887 435.62801,44.2160077 433.636,42.68 C431.64399,41.1439923 429.412012,39.980004 426.94,39.188 C424.467988,38.395996 421.912013,38 419.272,38 C415.33598,38 411.796016,38.695993 408.652,40.088 C405.507984,41.480007 402.856011,43.3999878 400.696,45.848 C398.535989,48.2960122 396.880006,51.1639836 395.728,54.452 C394.575994,57.7400164 394,61.3039808 394,65.144 C394,68.8880187 394.575994,72.3799838 395.728,75.62 C396.880006,78.8600162 398.535989,81.679988 400.696,84.08 C402.856011,86.480012 405.507984,88.3639932 408.652,89.732 C411.796016,91.1000068 415.33598,91.784 419.272,91.784 C421.768012,91.784 424.239988,91.2680052 426.688,90.236 C429.136012,89.2039948 431.36799,87.392013 433.384,84.8 L433.384,84.8 Z" id="G"></path>
                <path d="M489.304,43.256 L489.304,28.784 L501.688,28.784 C504.280013,28.784 506.223994,29.3479944 507.52,30.476 C508.816006,31.6040056 509.464,33.4159875 509.464,35.912 C509.464,38.504013 508.816006,40.3759942 507.52,41.528 C506.223994,42.6800058 504.280013,43.256 501.688,43.256 L489.304,43.256 Z M478,20 L478,71.408 L489.304,71.408 L489.304,51.32 L500.608,51.32 C503.440014,51.32 505.479994,51.9439938 506.728,53.192 C507.976006,54.4400062 508.791998,56.4079866 509.176,59.096 C509.464001,61.1600103 509.679999,63.3199887 509.824,65.576 C509.968001,67.8320113 510.351997,69.7759918 510.976,71.408 L522.28,71.408 C521.751997,70.6879964 521.356001,69.8120052 521.092,68.78 C520.827999,67.7479948 520.636001,66.6560058 520.516,65.504 C520.395999,64.3519942 520.312,63.2240055 520.264,62.12 C520.216,61.0159945 520.168,60.0560041 520.12,59.24 C520.024,57.9439935 519.844001,56.6480065 519.58,55.352 C519.315999,54.0559935 518.896003,52.8680054 518.32,51.788 C517.743997,50.7079946 517.000005,49.772004 516.088,48.98 C515.175995,48.187996 514.024007,47.6000019 512.632,47.216 L512.632,47.072 C515.512014,45.9199942 517.587994,44.240011 518.86,42.032 C520.132006,39.823989 520.768,37.2080151 520.768,34.184 C520.768,32.2159902 520.420003,30.3800085 519.724,28.676 C519.027997,26.9719915 518.020007,25.4720065 516.7,24.176 C515.379993,22.8799935 513.796009,21.8600037 511.948,21.116 C510.099991,20.3719963 508.024012,20 505.72,20 L478,20 Z" id="R"></path>
                <path d="M569.36,31.536 L576.056,12.672 L576.2,12.672 L582.68,31.536 L569.36,31.536 Z M570.44,0 L551,51.408 L562.376,51.408 L566.408,39.96 L585.632,39.96 L589.52,51.408 L601.256,51.408 L582.032,0 L570.44,0 Z" id="A"></path>
                <polygon id="F" points="633 20 633 71.408 644.304 71.408 644.304 50.168 665.832 50.168 665.832 41.384 644.304 41.384 644.304 29.504 669.144 29.504 669.144 20"></polygon>
                <polygon id="E" points="751 20 751 71.408 790.024 71.408 790.024 61.904 762.304 61.904 762.304 49.304 787.216 49.304 787.216 40.52 762.304 40.52 762.304 29.504 789.448 29.504 789.448 20"></polygon>
                <polygon id="I" points="703 40 703 91.408 714.304 91.408 714.304 40"></polygon>
            </g>
        </g>
    </g>
</svg>